<svg width="9" height="15" viewBox="0 0 9 15" fill="none" xmlns="http://www.w3.org/2000/svg">
<path fill-rule="evenodd" clip-rule="evenodd" d="M0.169476 7.09158C0.115754 7.14516 0.0731321 7.20882 0.0440505 7.27891C0.014969 7.34899 0 7.42412 0 7.5C0 7.57588 0.014969 7.65101 0.0440505 7.72109C0.0731321 7.79118 0.115754 7.85484 0.169476 7.90842L7.09188 14.8308C7.2002 14.9391 7.34711 15 7.5003 15C7.65349 15 7.8004 14.9391 7.90872 14.8308C8.01704 14.7225 8.0779 14.5756 8.0779 14.4224C8.0779 14.2692 8.01704 14.1223 7.90872 14.014L1.39359 7.5L7.90872 0.986018C8.01704 0.877697 8.0779 0.730784 8.0779 0.577596C8.0779 0.424408 8.01704 0.277494 7.90872 0.169174C7.8004 0.0608537 7.65349 0 7.5003 0C7.34711 0 7.2002 0.0608537 7.09188 0.169174L0.169476 7.09158Z" fill="black"/>
</svg>
