<svg width="13" height="15" viewBox="0 0 13 15" fill="none" xmlns="http://www.w3.org/2000/svg">
<path d="M0 1.40625C0 1.28193 0.049386 1.1627 0.137294 1.07479C0.225201 0.986886 0.34443 0.9375 0.46875 0.9375H11.7188C11.8431 0.9375 11.9623 0.986886 12.0502 1.07479C12.1381 1.1627 12.1875 1.28193 12.1875 1.40625V3.28125C12.1875 3.39685 12.1447 3.50837 12.0675 3.59438L7.96875 8.14875V12.6562C7.96868 12.7546 7.93767 12.8504 7.88013 12.9302C7.82259 13.0099 7.74143 13.0695 7.64813 13.1006L4.83563 14.0381C4.76519 14.0616 4.6902 14.068 4.61681 14.0568C4.54343 14.0456 4.47375 14.0171 4.41352 13.9737C4.35328 13.9303 4.30421 13.8733 4.27035 13.8072C4.23649 13.7411 4.21881 13.668 4.21875 13.5938V8.14875L0.12 3.59438C0.0427577 3.50837 2.0766e-05 3.39685 0 3.28125V1.40625ZM0.9375 1.875V3.10125L5.03625 7.65563C5.11349 7.74163 5.15623 7.85315 5.15625 7.96875V12.9431L7.03125 12.3188V7.96875C7.03127 7.85315 7.07401 7.74163 7.15125 7.65563L11.25 3.10125V1.875H0.9375Z" fill="black"/>
</svg>
