<svg width="124" height="38" viewBox="0 0 124 38" fill="none" xmlns="http://www.w3.org/2000/svg">
<rect width="124" height="38" rx="5" fill="#185D51"/>
<path fill-rule="evenodd" clip-rule="evenodd" d="M103.312 23.4998C104.125 23.4998 104.93 23.3398 105.68 23.0288C106.431 22.7179 107.113 22.2621 107.688 21.6876C108.262 21.113 108.718 20.4309 109.029 19.6802C109.34 18.9295 109.5 18.1249 109.5 17.3124C109.5 16.4999 109.34 15.6953 109.029 14.9446C108.718 14.1939 108.262 13.5118 107.688 12.9372C107.113 12.3627 106.431 11.9069 105.68 11.596C104.93 11.285 104.125 11.125 103.312 11.125C101.671 11.125 100.098 11.7769 98.9372 12.9372C97.7769 14.0976 97.125 15.6714 97.125 17.3124C97.125 18.9534 97.7769 20.5272 98.9372 21.6876C100.098 22.8479 101.671 23.4998 103.312 23.4998ZM110.625 17.3124C110.625 19.2518 109.854 21.1117 108.483 22.483C107.112 23.8544 105.252 24.6248 103.312 24.6248C101.373 24.6248 99.5131 23.8544 98.1418 22.483C96.7704 21.1117 96 19.2518 96 17.3124C96 15.373 96.7704 13.5131 98.1418 12.1418C99.5131 10.7704 101.373 10 103.312 10C105.252 10 107.112 10.7704 108.483 12.1418C109.854 13.5131 110.625 15.373 110.625 17.3124Z" fill="white"/>
<path d="M107.637 23.2106C107.671 23.2556 107.707 23.2983 107.747 23.3399L112.078 27.6711C112.289 27.8822 112.575 28.0009 112.874 28.001C113.172 28.0011 113.458 27.8826 113.67 27.6717C113.881 27.4608 113.999 27.1746 113.999 26.8762C114 26.5777 113.881 26.2915 113.67 26.0804L109.339 21.7492C109.299 21.7085 109.255 21.6709 109.21 21.6367C108.768 22.2385 108.238 22.7695 107.637 23.2117V23.2106Z" fill="white"/>
<path fill-rule="evenodd" clip-rule="evenodd" d="M103.312 13.375C103.462 13.375 103.605 13.4343 103.71 13.5398C103.816 13.6452 103.875 13.7883 103.875 13.9375V16.75H106.687C106.837 16.75 106.98 16.8092 107.085 16.9147C107.191 17.0202 107.25 17.1633 107.25 17.3124C107.25 17.4616 107.191 17.6047 107.085 17.7102C106.98 17.8157 106.837 17.8749 106.687 17.8749H103.875V20.6874C103.875 20.8366 103.816 20.9797 103.71 21.0851C103.605 21.1906 103.462 21.2499 103.312 21.2499C103.163 21.2499 103.02 21.1906 102.915 21.0851C102.809 20.9797 102.75 20.8366 102.75 20.6874V17.8749H99.9375C99.7883 17.8749 99.6452 17.8157 99.5398 17.7102C99.4343 17.6047 99.375 17.4616 99.375 17.3124C99.375 17.1633 99.4343 17.0202 99.5398 16.9147C99.6452 16.8092 99.7883 16.75 99.9375 16.75H102.75V13.9375C102.75 13.7883 102.809 13.6452 102.915 13.5398C103.02 13.4343 103.163 13.375 103.312 13.375Z" fill="white"/>
<path d="M22.912 13.88V25H21.088V17.384L17.696 25H16.432L13.024 17.384V25H11.2V13.88H13.168L17.072 22.6L20.96 13.88H22.912ZM24.7014 20.552C24.7014 19.6667 24.8827 18.8827 25.2454 18.2C25.6187 17.5173 26.12 16.9893 26.7494 16.616C27.3894 16.232 28.0934 16.04 28.8614 16.04C29.5547 16.04 30.1574 16.1787 30.6694 16.456C31.192 16.7227 31.608 17.0587 31.9174 17.464V16.184H33.7574V25H31.9174V23.688C31.608 24.104 31.1867 24.4507 30.6534 24.728C30.12 25.0053 29.512 25.144 28.8294 25.144C28.072 25.144 27.3787 24.952 26.7494 24.568C26.12 24.1733 25.6187 23.6293 25.2454 22.936C24.8827 22.232 24.7014 21.4373 24.7014 20.552ZM31.9174 20.584C31.9174 19.976 31.7894 19.448 31.5334 19C31.288 18.552 30.9627 18.2107 30.5574 17.976C30.152 17.7413 29.7147 17.624 29.2454 17.624C28.776 17.624 28.3387 17.7413 27.9334 17.976C27.528 18.2 27.1974 18.536 26.9414 18.984C26.696 19.4213 26.5734 19.944 26.5734 20.552C26.5734 21.16 26.696 21.6933 26.9414 22.152C27.1974 22.6107 27.528 22.9627 27.9334 23.208C28.3494 23.4427 28.7867 23.56 29.2454 23.56C29.7147 23.56 30.152 23.4427 30.5574 23.208C30.9627 22.9733 31.288 22.632 31.5334 22.184C31.7894 21.7253 31.9174 21.192 31.9174 20.584ZM39.7051 16.04C40.3878 16.04 40.9905 16.1787 41.5131 16.456C42.0465 16.7227 42.4625 17.0587 42.7611 17.464V16.184H44.6011V25.144C44.6011 25.9547 44.4305 26.6747 44.0891 27.304C43.7478 27.944 43.2518 28.4453 42.6011 28.808C41.9611 29.1707 41.1931 29.352 40.2971 29.352C39.1025 29.352 38.1105 29.0693 37.3211 28.504C36.5318 27.9493 36.0838 27.192 35.9771 26.232H37.7851C37.9238 26.6907 38.2171 27.0587 38.6651 27.336C39.1238 27.624 39.6678 27.768 40.2971 27.768C41.0331 27.768 41.6251 27.544 42.0731 27.096C42.5318 26.648 42.7611 25.9973 42.7611 25.144V23.672C42.4518 24.088 42.0305 24.44 41.4971 24.728C40.9745 25.0053 40.3771 25.144 39.7051 25.144C38.9371 25.144 38.2331 24.952 37.5931 24.568C36.9638 24.1733 36.4625 23.6293 36.0891 22.936C35.7265 22.232 35.5451 21.4373 35.5451 20.552C35.5451 19.6667 35.7265 18.8827 36.0891 18.2C36.4625 17.5173 36.9638 16.9893 37.5931 16.616C38.2331 16.232 38.9371 16.04 39.7051 16.04ZM42.7611 20.584C42.7611 19.976 42.6331 19.448 42.3771 19C42.1318 18.552 41.8065 18.2107 41.4011 17.976C40.9958 17.7413 40.5585 17.624 40.0891 17.624C39.6198 17.624 39.1825 17.7413 38.7771 17.976C38.3718 18.2 38.0411 18.536 37.7851 18.984C37.5398 19.4213 37.4171 19.944 37.4171 20.552C37.4171 21.16 37.5398 21.6933 37.7851 22.152C38.0411 22.6107 38.3718 22.9627 38.7771 23.208C39.1931 23.4427 39.6305 23.56 40.0891 23.56C40.5585 23.56 40.9958 23.4427 41.4011 23.208C41.8065 22.9733 42.1318 22.632 42.3771 22.184C42.6331 21.7253 42.7611 21.192 42.7611 20.584ZM51.4449 16.04C52.1382 16.04 52.7569 16.184 53.3009 16.472C53.8555 16.76 54.2875 17.1867 54.5969 17.752C54.9062 18.3173 55.0609 19 55.0609 19.8V25H53.2529V20.072C53.2529 19.2827 53.0555 18.68 52.6609 18.264C52.2662 17.8373 51.7275 17.624 51.0449 17.624C50.3622 17.624 49.8182 17.8373 49.4129 18.264C49.0182 18.68 48.8209 19.2827 48.8209 20.072V25H46.9969V16.184H48.8209V17.192C49.1195 16.8293 49.4982 16.5467 49.9569 16.344C50.4262 16.1413 50.9222 16.04 51.4449 16.04ZM58.3155 15.016C57.9848 15.016 57.7075 14.904 57.4835 14.68C57.2595 14.456 57.1475 14.1787 57.1475 13.848C57.1475 13.5173 57.2595 13.24 57.4835 13.016C57.7075 12.792 57.9848 12.68 58.3155 12.68C58.6355 12.68 58.9075 12.792 59.1315 13.016C59.3555 13.24 59.4675 13.5173 59.4675 13.848C59.4675 14.1787 59.3555 14.456 59.1315 14.68C58.9075 14.904 58.6355 15.016 58.3155 15.016ZM59.2115 16.184V25H57.3875V16.184H59.2115ZM65.3023 17.672H63.6703V25H61.8303V17.672H60.7903V16.184H61.8303V15.56C61.8303 14.5467 62.0969 13.8107 62.6303 13.352C63.1743 12.8827 64.0223 12.648 65.1743 12.648V14.168C64.6196 14.168 64.2303 14.2747 64.0063 14.488C63.7823 14.6907 63.6703 15.048 63.6703 15.56V16.184H65.3023V17.672ZM67.8468 15.016C67.5161 15.016 67.2388 14.904 67.0148 14.68C66.7908 14.456 66.6788 14.1787 66.6788 13.848C66.6788 13.5173 66.7908 13.24 67.0148 13.016C67.2388 12.792 67.5161 12.68 67.8468 12.68C68.1668 12.68 68.4388 12.792 68.6628 13.016C68.8868 13.24 68.9988 13.5173 68.9988 13.848C68.9988 14.1787 68.8868 14.456 68.6628 14.68C68.4388 14.904 68.1668 15.016 67.8468 15.016ZM68.7428 16.184V25H66.9188V16.184H68.7428ZM79.2175 20.376C79.2175 20.7067 79.1962 21.0053 79.1535 21.272H72.4175C72.4708 21.976 72.7322 22.5413 73.2015 22.968C73.6708 23.3947 74.2468 23.608 74.9295 23.608C75.9108 23.608 76.6042 23.1973 77.0095 22.376H78.9775C78.7108 23.1867 78.2255 23.8533 77.5215 24.376C76.8282 24.888 75.9642 25.144 74.9295 25.144C74.0868 25.144 73.3295 24.9573 72.6575 24.584C71.9962 24.2 71.4735 23.6667 71.0895 22.984C70.7162 22.2907 70.5295 21.4907 70.5295 20.584C70.5295 19.6773 70.7108 18.8827 71.0735 18.2C71.4468 17.5067 71.9642 16.9733 72.6255 16.6C73.2975 16.2267 74.0655 16.04 74.9295 16.04C75.7615 16.04 76.5028 16.2213 77.1535 16.584C77.8042 16.9467 78.3108 17.4587 78.6735 18.12C79.0362 18.7707 79.2175 19.5227 79.2175 20.376ZM77.3135 19.8C77.3028 19.128 77.0628 18.5893 76.5935 18.184C76.1242 17.7787 75.5428 17.576 74.8495 17.576C74.2202 17.576 73.6815 17.7787 73.2335 18.184C72.7855 18.5787 72.5188 19.1173 72.4335 19.8H77.3135ZM82.8365 17.464C83.1032 17.016 83.4552 16.6693 83.8925 16.424C84.3405 16.168 84.8685 16.04 85.4765 16.04V17.928H85.0125C84.2978 17.928 83.7538 18.1093 83.3805 18.472C83.0178 18.8347 82.8365 19.464 82.8365 20.36V25H81.0125V16.184H82.8365V17.464Z" fill="white"/>
</svg>
