<svg width="15" height="15" viewBox="0 0 15 15" fill="none" xmlns="http://www.w3.org/2000/svg">
<circle cx="7.5" cy="7.5" r="7.5" fill="black"/>
<path d="M4.14689 4.14689C4.19334 4.10033 4.24851 4.06339 4.30926 4.03818C4.37001 4.01297 4.43513 4 4.50089 4C4.56666 4 4.63178 4.01297 4.69253 4.03818C4.75327 4.06339 4.80845 4.10033 4.85489 4.14689L7.50089 6.79389L10.1469 4.14689C10.1934 4.10041 10.2486 4.06353 10.3093 4.03837C10.37 4.01321 10.4351 4.00026 10.5009 4.00026C10.5666 4.00026 10.6317 4.01321 10.6925 4.03837C10.7532 4.06353 10.8084 4.10041 10.8549 4.14689C10.9014 4.19338 10.9383 4.24857 10.9634 4.30931C10.9886 4.37005 11.0015 4.43515 11.0015 4.50089C11.0015 4.56664 10.9886 4.63174 10.9634 4.69248C10.9383 4.75322 10.9014 4.80841 10.8549 4.85489L8.20789 7.50089L10.8549 10.1469C10.9014 10.1934 10.9383 10.2486 10.9634 10.3093C10.9886 10.37 11.0015 10.4351 11.0015 10.5009C11.0015 10.5666 10.9886 10.6317 10.9634 10.6925C10.9383 10.7532 10.9014 10.8084 10.8549 10.8549C10.8084 10.9014 10.7532 10.9383 10.6925 10.9634C10.6317 10.9886 10.5666 11.0015 10.5009 11.0015C10.4351 11.0015 10.37 10.9886 10.3093 10.9634C10.2486 10.9383 10.1934 10.9014 10.1469 10.8549L7.50089 8.20789L4.85489 10.8549C4.80841 10.9014 4.75322 10.9383 4.69248 10.9634C4.63174 10.9886 4.56664 11.0015 4.50089 11.0015C4.43515 11.0015 4.37005 10.9886 4.30931 10.9634C4.24857 10.9383 4.19338 10.9014 4.14689 10.8549C4.10041 10.8084 4.06353 10.7532 4.03837 10.6925C4.01321 10.6317 4.00026 10.5666 4.00026 10.5009C4.00026 10.4351 4.01321 10.37 4.03837 10.3093C4.06353 10.2486 4.10041 10.1934 4.14689 10.1469L6.79389 7.50089L4.14689 4.85489C4.10033 4.80845 4.06339 4.75327 4.03818 4.69253C4.01297 4.63178 4 4.56666 4 4.50089C4 4.43513 4.01297 4.37001 4.03818 4.30926C4.06339 4.24851 4.10033 4.19334 4.14689 4.14689Z" fill="white"/>
</svg>
