<svg width="294" height="97" viewBox="0 0 294 97" fill="none" xmlns="http://www.w3.org/2000/svg">
<path d="M90.35 43.95C92.3167 44.3167 93.9833 45.3167 95.35 46.95C96.7167 48.5833 97.4 50.4833 97.4 52.65C97.4 54.4167 96.95 56.0167 96.05 57.45C95.1833 58.85 93.9 59.9667 92.2 60.8C90.5 61.6 88.4667 62 86.1 62H74V27.05H85.75C89.2833 27.05 91.9667 27.8667 93.8 29.5C95.6667 31.1333 96.6 33.25 96.6 35.85C96.6 38.0167 96.0167 39.7833 94.85 41.15C93.6833 42.4833 92.1833 43.4167 90.35 43.95ZM77.5 42.5H85.65C88.0167 42.5 89.8333 41.95 91.1 40.85C92.4 39.7167 93.05 38.1667 93.05 36.2C93.05 34.2667 92.4 32.75 91.1 31.65C89.8333 30.55 87.9667 30 85.5 30H77.5V42.5ZM85.85 59.05C88.3833 59.05 90.35 58.45 91.75 57.25C93.1833 56.05 93.9 54.4 93.9 52.3C93.9 50.2 93.15 48.5333 91.65 47.3C90.1833 46.0333 88.2 45.4 85.7 45.4H77.5V59.05H85.85ZM107.334 39.55C108.101 37.85 109.267 36.5333 110.834 35.6C112.434 34.6667 114.384 34.2 116.684 34.2V37.85H115.734C113.201 37.85 111.167 38.5333 109.634 39.9C108.101 41.2667 107.334 43.55 107.334 46.75V62H103.834V34.7H107.334V39.55ZM120.349 48.3C120.349 45.5 120.899 43.05 121.999 40.95C123.133 38.8167 124.683 37.1833 126.649 36.05C128.649 34.8833 130.899 34.3 133.399 34.3C135.999 34.3 138.233 34.9 140.099 36.1C141.999 37.3 143.366 38.8333 144.199 40.7V34.7H147.699V62H144.199V55.95C143.333 57.8167 141.949 59.3667 140.049 60.6C138.183 61.8 135.949 62.4 133.349 62.4C130.883 62.4 128.649 61.8167 126.649 60.65C124.683 59.4833 123.133 57.8333 121.999 55.7C120.899 53.5667 120.349 51.1 120.349 48.3ZM144.199 48.35C144.199 46.15 143.749 44.2167 142.849 42.55C141.949 40.8833 140.716 39.6 139.149 38.7C137.616 37.8 135.916 37.35 134.049 37.35C132.116 37.35 130.383 37.7833 128.849 38.65C127.316 39.5167 126.099 40.7833 125.199 42.45C124.333 44.0833 123.899 46.0333 123.899 48.3C123.899 50.5333 124.333 52.5 125.199 54.2C126.099 55.8667 127.316 57.15 128.849 58.05C130.383 58.9167 132.116 59.35 134.049 59.35C135.916 59.35 137.616 58.9 139.149 58C140.716 57.1 141.949 55.8167 142.849 54.15C143.749 52.4833 144.199 50.55 144.199 48.35ZM165.089 62.4C161.956 62.4 159.389 61.6833 157.389 60.25C155.423 58.7833 154.323 56.8 154.089 54.3H157.689C157.856 55.8333 158.573 57.0833 159.839 58.05C161.139 58.9833 162.873 59.45 165.039 59.45C166.939 59.45 168.423 59 169.489 58.1C170.589 57.2 171.139 56.0833 171.139 54.75C171.139 53.8167 170.839 53.05 170.239 52.45C169.639 51.85 168.873 51.3833 167.939 51.05C167.039 50.6833 165.806 50.3 164.239 49.9C162.206 49.3667 160.556 48.8333 159.289 48.3C158.023 47.7667 156.939 46.9833 156.039 45.95C155.173 44.8833 154.739 43.4667 154.739 41.7C154.739 40.3667 155.139 39.1333 155.939 38C156.739 36.8667 157.873 35.9667 159.339 35.3C160.806 34.6333 162.473 34.3 164.339 34.3C167.273 34.3 169.639 35.05 171.439 36.55C173.239 38.0167 174.206 40.05 174.339 42.65H170.839C170.739 41.05 170.106 39.7667 168.939 38.8C167.806 37.8 166.239 37.3 164.239 37.3C162.473 37.3 161.039 37.7167 159.939 38.55C158.839 39.3833 158.289 40.4167 158.289 41.65C158.289 42.7167 158.606 43.6 159.239 44.3C159.906 44.9667 160.723 45.5 161.689 45.9C162.656 46.2667 163.956 46.6833 165.589 47.15C167.556 47.6833 169.123 48.2 170.289 48.7C171.456 49.2 172.456 49.9333 173.289 50.9C174.123 51.8667 174.556 53.15 174.589 54.75C174.589 56.2167 174.189 57.5333 173.389 58.7C172.589 59.8333 171.473 60.7333 170.039 61.4C168.606 62.0667 166.956 62.4 165.089 62.4ZM190.578 62.4C187.444 62.4 184.878 61.6833 182.878 60.25C180.911 58.7833 179.811 56.8 179.578 54.3H183.178C183.344 55.8333 184.061 57.0833 185.328 58.05C186.628 58.9833 188.361 59.45 190.528 59.45C192.428 59.45 193.911 59 194.978 58.1C196.078 57.2 196.628 56.0833 196.628 54.75C196.628 53.8167 196.328 53.05 195.728 52.45C195.128 51.85 194.361 51.3833 193.428 51.05C192.528 50.6833 191.294 50.3 189.728 49.9C187.694 49.3667 186.044 48.8333 184.778 48.3C183.511 47.7667 182.428 46.9833 181.528 45.95C180.661 44.8833 180.228 43.4667 180.228 41.7C180.228 40.3667 180.628 39.1333 181.428 38C182.228 36.8667 183.361 35.9667 184.828 35.3C186.294 34.6333 187.961 34.3 189.828 34.3C192.761 34.3 195.128 35.05 196.928 36.55C198.728 38.0167 199.694 40.05 199.828 42.65H196.328C196.228 41.05 195.594 39.7667 194.428 38.8C193.294 37.8 191.728 37.3 189.728 37.3C187.961 37.3 186.528 37.7167 185.428 38.55C184.328 39.3833 183.778 40.4167 183.778 41.65C183.778 42.7167 184.094 43.6 184.728 44.3C185.394 44.9667 186.211 45.5 187.178 45.9C188.144 46.2667 189.444 46.6833 191.078 47.15C193.044 47.6833 194.611 48.2 195.778 48.7C196.944 49.2 197.944 49.9333 198.778 50.9C199.611 51.8667 200.044 53.15 200.078 54.75C200.078 56.2167 199.678 57.5333 198.878 58.7C198.078 59.8333 196.961 60.7333 195.528 61.4C194.094 62.0667 192.444 62.4 190.578 62.4ZM208.416 29.55C207.716 29.55 207.116 29.3 206.616 28.8C206.116 28.3 205.866 27.6833 205.866 26.95C205.866 26.2167 206.116 25.6167 206.616 25.15C207.116 24.65 207.716 24.4 208.416 24.4C209.116 24.4 209.716 24.65 210.216 25.15C210.716 25.6167 210.966 26.2167 210.966 26.95C210.966 27.6833 210.716 28.3 210.216 28.8C209.716 29.3 209.116 29.55 208.416 29.55ZM210.166 34.7V62H206.666V34.7H210.166ZM238.542 27.05V29.95H228.842V62H225.342V29.95H215.592V27.05H238.542ZM256.018 62.4C253.452 62.4 251.135 61.8333 249.068 60.7C247.035 59.5333 245.418 57.9 244.218 55.8C243.052 53.6667 242.468 51.1833 242.468 48.35C242.468 45.5167 243.068 43.05 244.268 40.95C245.468 38.8167 247.102 37.1833 249.168 36.05C251.235 34.8833 253.552 34.3 256.118 34.3C258.685 34.3 261.002 34.8833 263.068 36.05C265.168 37.1833 266.802 38.8167 267.968 40.95C269.168 43.05 269.768 45.5167 269.768 48.35C269.768 51.15 269.168 53.6167 267.968 55.75C266.768 57.8833 265.118 59.5333 263.018 60.7C260.918 61.8333 258.585 62.4 256.018 62.4ZM256.018 59.35C257.818 59.35 259.485 58.95 261.018 58.15C262.552 57.3167 263.785 56.0833 264.718 54.45C265.685 52.7833 266.168 50.75 266.168 48.35C266.168 45.95 265.702 43.9333 264.768 42.3C263.835 40.6333 262.602 39.4 261.068 38.6C259.535 37.7667 257.868 37.35 256.068 37.35C254.268 37.35 252.602 37.7667 251.068 38.6C249.535 39.4 248.302 40.6333 247.368 42.3C246.468 43.9333 246.018 45.95 246.018 48.35C246.018 50.75 246.468 52.7833 247.368 54.45C248.302 56.0833 249.518 57.3167 251.018 58.15C252.552 58.95 254.218 59.35 256.018 59.35ZM279.648 59.15H292.198V62H276.148V27.05H279.648V59.15Z" fill="black"/>
<path d="M77.775 83.555C78.385 83.665 78.895 83.965 79.305 84.455C79.725 84.945 79.935 85.52 79.935 86.18C79.935 86.72 79.805 87.205 79.545 87.635C79.295 88.055 78.915 88.39 78.405 88.64C77.905 88.88 77.295 89 76.575 89H73.23V78.47H76.515C77.565 78.47 78.355 78.715 78.885 79.205C79.425 79.685 79.695 80.31 79.695 81.08C79.695 81.75 79.515 82.295 79.155 82.715C78.795 83.125 78.335 83.405 77.775 83.555ZM73.905 83.255H76.545C77.335 83.255 77.94 83.07 78.36 82.7C78.79 82.32 79.005 81.8 79.005 81.14C79.005 80.5 78.795 79.995 78.375 79.625C77.955 79.255 77.32 79.07 76.47 79.07H73.905V83.255ZM76.53 88.415C77.38 88.415 78.045 88.215 78.525 87.815C79.015 87.405 79.26 86.845 79.26 86.135C79.26 85.435 79.01 84.88 78.51 84.47C78.02 84.05 77.345 83.84 76.485 83.84H73.905V88.415H76.53ZM83.3415 82.535C83.5415 81.935 83.8965 81.48 84.4065 81.17C84.9165 80.85 85.5665 80.69 86.3565 80.69V81.395H86.1315C85.3315 81.395 84.6665 81.625 84.1365 82.085C83.6065 82.535 83.3415 83.275 83.3415 84.305V89H82.6665V80.855H83.3415V82.535ZM88.2407 84.92C88.2407 84.08 88.4057 83.345 88.7357 82.715C89.0757 82.085 89.5407 81.6 90.1307 81.26C90.7307 80.92 91.4107 80.75 92.1707 80.75C93.0307 80.75 93.7607 80.96 94.3607 81.38C94.9607 81.8 95.3807 82.335 95.6207 82.985V80.855H96.2957V89H95.6207V86.855C95.3807 87.515 94.9557 88.06 94.3457 88.49C93.7457 88.91 93.0207 89.12 92.1707 89.12C91.4107 89.12 90.7307 88.95 90.1307 88.61C89.5407 88.26 89.0757 87.77 88.7357 87.14C88.4057 86.5 88.2407 85.76 88.2407 84.92ZM95.6207 84.92C95.6207 84.21 95.4707 83.585 95.1707 83.045C94.8807 82.495 94.4807 82.075 93.9707 81.785C93.4607 81.485 92.8907 81.335 92.2607 81.335C91.6007 81.335 91.0207 81.48 90.5207 81.77C90.0207 82.05 89.6307 82.46 89.3507 83C89.0707 83.54 88.9307 84.18 88.9307 84.92C88.9307 85.66 89.0707 86.3 89.3507 86.84C89.6307 87.38 90.0207 87.795 90.5207 88.085C91.0307 88.375 91.6107 88.52 92.2607 88.52C92.8907 88.52 93.4607 88.375 93.9707 88.085C94.4907 87.785 94.8957 87.365 95.1857 86.825C95.4757 86.275 95.6207 85.64 95.6207 84.92ZM102.218 89.12C101.308 89.12 100.563 88.92 99.9834 88.52C99.4134 88.12 99.0934 87.55 99.0234 86.81H99.7134C99.7634 87.34 100.003 87.76 100.433 88.07C100.873 88.38 101.468 88.535 102.218 88.535C102.838 88.535 103.328 88.38 103.688 88.07C104.058 87.75 104.243 87.36 104.243 86.9C104.243 86.58 104.143 86.32 103.943 86.12C103.753 85.91 103.513 85.75 103.223 85.64C102.933 85.53 102.538 85.41 102.038 85.28C101.438 85.12 100.953 84.965 100.583 84.815C100.213 84.655 99.8984 84.42 99.6384 84.11C99.3784 83.8 99.2484 83.385 99.2484 82.865C99.2484 82.485 99.3634 82.135 99.5934 81.815C99.8234 81.485 100.143 81.225 100.553 81.035C100.963 80.845 101.428 80.75 101.948 80.75C102.798 80.75 103.483 80.965 104.003 81.395C104.533 81.815 104.818 82.4 104.858 83.15H104.183C104.153 82.61 103.943 82.17 103.553 81.83C103.163 81.49 102.623 81.32 101.933 81.32C101.353 81.32 100.873 81.47 100.493 81.77C100.113 82.07 99.9234 82.435 99.9234 82.865C99.9234 83.245 100.028 83.555 100.238 83.795C100.458 84.025 100.723 84.205 101.033 84.335C101.353 84.455 101.773 84.585 102.293 84.725C102.863 84.875 103.318 85.025 103.658 85.175C104.008 85.315 104.303 85.525 104.543 85.805C104.783 86.075 104.903 86.44 104.903 86.9C104.903 87.32 104.788 87.7 104.558 88.04C104.328 88.38 104.008 88.645 103.598 88.835C103.188 89.025 102.728 89.12 102.218 89.12ZM110.424 89.12C109.514 89.12 108.769 88.92 108.189 88.52C107.619 88.12 107.299 87.55 107.229 86.81H107.919C107.969 87.34 108.209 87.76 108.639 88.07C109.079 88.38 109.674 88.535 110.424 88.535C111.044 88.535 111.534 88.38 111.894 88.07C112.264 87.75 112.449 87.36 112.449 86.9C112.449 86.58 112.349 86.32 112.149 86.12C111.959 85.91 111.719 85.75 111.429 85.64C111.139 85.53 110.744 85.41 110.244 85.28C109.644 85.12 109.159 84.965 108.789 84.815C108.419 84.655 108.104 84.42 107.844 84.11C107.584 83.8 107.454 83.385 107.454 82.865C107.454 82.485 107.569 82.135 107.799 81.815C108.029 81.485 108.349 81.225 108.759 81.035C109.169 80.845 109.634 80.75 110.154 80.75C111.004 80.75 111.689 80.965 112.209 81.395C112.739 81.815 113.024 82.4 113.064 83.15H112.389C112.359 82.61 112.149 82.17 111.759 81.83C111.369 81.49 110.829 81.32 110.139 81.32C109.559 81.32 109.079 81.47 108.699 81.77C108.319 82.07 108.129 82.435 108.129 82.865C108.129 83.245 108.234 83.555 108.444 83.795C108.664 84.025 108.929 84.205 109.239 84.335C109.559 84.455 109.979 84.585 110.499 84.725C111.069 84.875 111.524 85.025 111.864 85.175C112.214 85.315 112.509 85.525 112.749 85.805C112.989 86.075 113.109 86.44 113.109 86.9C113.109 87.32 112.994 87.7 112.764 88.04C112.534 88.38 112.214 88.645 111.804 88.835C111.394 89.025 110.934 89.12 110.424 89.12ZM116.261 79.04C116.101 79.04 115.966 78.99 115.856 78.89C115.746 78.78 115.691 78.635 115.691 78.455C115.691 78.285 115.746 78.145 115.856 78.035C115.966 77.925 116.101 77.87 116.261 77.87C116.421 77.87 116.556 77.925 116.666 78.035C116.776 78.145 116.831 78.285 116.831 78.455C116.831 78.635 116.776 78.78 116.666 78.89C116.556 78.99 116.421 79.04 116.261 79.04ZM116.591 80.855V89H115.916V80.855H116.591ZM119.395 84.92C119.395 84.07 119.56 83.33 119.89 82.7C120.23 82.07 120.695 81.59 121.285 81.26C121.885 80.92 122.57 80.75 123.34 80.75C124.36 80.75 125.195 81.005 125.845 81.515C126.505 82.025 126.915 82.71 127.075 83.57H126.37C126.24 82.87 125.9 82.32 125.35 81.92C124.81 81.52 124.14 81.32 123.34 81.32C122.74 81.32 122.195 81.455 121.705 81.725C121.215 81.985 120.82 82.39 120.52 82.94C120.23 83.48 120.085 84.14 120.085 84.92C120.085 85.71 120.23 86.375 120.52 86.915C120.82 87.455 121.215 87.86 121.705 88.13C122.195 88.4 122.74 88.535 123.34 88.535C124.14 88.535 124.81 88.335 125.35 87.935C125.9 87.535 126.24 86.985 126.37 86.285H127.075C126.915 87.135 126.505 87.82 125.845 88.34C125.185 88.86 124.35 89.12 123.34 89.12C122.57 89.12 121.885 88.95 121.285 88.61C120.695 88.27 120.23 87.785 119.89 87.155C119.56 86.515 119.395 85.77 119.395 84.92ZM129.461 84.92C129.461 84.08 129.626 83.345 129.956 82.715C130.296 82.085 130.761 81.6 131.351 81.26C131.951 80.92 132.631 80.75 133.391 80.75C134.251 80.75 134.981 80.96 135.581 81.38C136.181 81.8 136.601 82.335 136.841 82.985V80.855H137.516V89H136.841V86.855C136.601 87.515 136.176 88.06 135.566 88.49C134.966 88.91 134.241 89.12 133.391 89.12C132.631 89.12 131.951 88.95 131.351 88.61C130.761 88.26 130.296 87.77 129.956 87.14C129.626 86.5 129.461 85.76 129.461 84.92ZM136.841 84.92C136.841 84.21 136.691 83.585 136.391 83.045C136.101 82.495 135.701 82.075 135.191 81.785C134.681 81.485 134.111 81.335 133.481 81.335C132.821 81.335 132.241 81.48 131.741 81.77C131.241 82.05 130.851 82.46 130.571 83C130.291 83.54 130.151 84.18 130.151 84.92C130.151 85.66 130.291 86.3 130.571 86.84C130.851 87.38 131.241 87.795 131.741 88.085C132.251 88.375 132.831 88.52 133.481 88.52C134.111 88.52 134.681 88.375 135.191 88.085C135.711 87.785 136.116 87.365 136.406 86.825C136.696 86.275 136.841 85.64 136.841 84.92ZM140.304 84.92C140.304 84.07 140.469 83.33 140.799 82.7C141.139 82.07 141.604 81.59 142.194 81.26C142.794 80.92 143.479 80.75 144.249 80.75C145.269 80.75 146.104 81.005 146.754 81.515C147.414 82.025 147.824 82.71 147.984 83.57H147.279C147.149 82.87 146.809 82.32 146.259 81.92C145.719 81.52 145.049 81.32 144.249 81.32C143.649 81.32 143.104 81.455 142.614 81.725C142.124 81.985 141.729 82.39 141.429 82.94C141.139 83.48 140.994 84.14 140.994 84.92C140.994 85.71 141.139 86.375 141.429 86.915C141.729 87.455 142.124 87.86 142.614 88.13C143.104 88.4 143.649 88.535 144.249 88.535C145.049 88.535 145.719 88.335 146.259 87.935C146.809 87.535 147.149 86.985 147.279 86.285H147.984C147.824 87.135 147.414 87.82 146.754 88.34C146.094 88.86 145.259 89.12 144.249 89.12C143.479 89.12 142.794 88.95 142.194 88.61C141.604 88.27 141.139 87.785 140.799 87.155C140.469 86.515 140.304 85.77 140.304 84.92ZM158.126 84.38C158.126 84.74 158.116 85.01 158.096 85.19H151.061C151.081 85.92 151.241 86.535 151.541 87.035C151.841 87.535 152.236 87.91 152.726 88.16C153.216 88.41 153.751 88.535 154.331 88.535C155.131 88.535 155.801 88.34 156.341 87.95C156.881 87.55 157.221 87.01 157.361 86.33H158.066C157.906 87.16 157.496 87.835 156.836 88.355C156.176 88.865 155.341 89.12 154.331 89.12C153.571 89.12 152.891 88.95 152.291 88.61C151.691 88.27 151.221 87.785 150.881 87.155C150.541 86.515 150.371 85.77 150.371 84.92C150.371 84.07 150.536 83.33 150.866 82.7C151.206 82.07 151.676 81.59 152.276 81.26C152.876 80.92 153.561 80.75 154.331 80.75C155.111 80.75 155.786 80.92 156.356 81.26C156.936 81.59 157.376 82.035 157.676 82.595C157.976 83.145 158.126 83.74 158.126 84.38ZM157.451 84.635C157.481 83.915 157.351 83.305 157.061 82.805C156.781 82.305 156.396 81.935 155.906 81.695C155.416 81.445 154.886 81.32 154.316 81.32C153.746 81.32 153.216 81.445 152.726 81.695C152.246 81.935 151.851 82.305 151.541 82.805C151.241 83.305 151.081 83.915 151.061 84.635H157.451ZM160.496 84.92C160.496 84.08 160.661 83.345 160.991 82.715C161.331 82.085 161.796 81.6 162.386 81.26C162.986 80.92 163.666 80.75 164.426 80.75C165.286 80.75 166.016 80.96 166.616 81.38C167.216 81.8 167.636 82.335 167.876 82.985V80.855H168.551V89H167.876V86.855C167.636 87.515 167.211 88.06 166.601 88.49C166.001 88.91 165.276 89.12 164.426 89.12C163.666 89.12 162.986 88.95 162.386 88.61C161.796 88.26 161.331 87.77 160.991 87.14C160.661 86.5 160.496 85.76 160.496 84.92ZM167.876 84.92C167.876 84.21 167.726 83.585 167.426 83.045C167.136 82.495 166.736 82.075 166.226 81.785C165.716 81.485 165.146 81.335 164.516 81.335C163.856 81.335 163.276 81.48 162.776 81.77C162.276 82.05 161.886 82.46 161.606 83C161.326 83.54 161.186 84.18 161.186 84.92C161.186 85.66 161.326 86.3 161.606 86.84C161.886 87.38 162.276 87.795 162.776 88.085C163.286 88.375 163.866 88.52 164.516 88.52C165.146 88.52 165.716 88.375 166.226 88.085C166.746 87.785 167.151 87.365 167.441 86.825C167.731 86.275 167.876 85.64 167.876 84.92ZM179.093 84.38C179.093 84.74 179.083 85.01 179.063 85.19H172.028C172.048 85.92 172.208 86.535 172.508 87.035C172.808 87.535 173.203 87.91 173.693 88.16C174.183 88.41 174.718 88.535 175.298 88.535C176.098 88.535 176.768 88.34 177.308 87.95C177.848 87.55 178.188 87.01 178.328 86.33H179.033C178.873 87.16 178.463 87.835 177.803 88.355C177.143 88.865 176.308 89.12 175.298 89.12C174.538 89.12 173.858 88.95 173.258 88.61C172.658 88.27 172.188 87.785 171.848 87.155C171.508 86.515 171.338 85.77 171.338 84.92C171.338 84.07 171.503 83.33 171.833 82.7C172.173 82.07 172.643 81.59 173.243 81.26C173.843 80.92 174.528 80.75 175.298 80.75C176.078 80.75 176.753 80.92 177.323 81.26C177.903 81.59 178.343 82.035 178.643 82.595C178.943 83.145 179.093 83.74 179.093 84.38ZM178.418 84.635C178.448 83.915 178.318 83.305 178.028 82.805C177.748 82.305 177.363 81.935 176.873 81.695C176.383 81.445 175.853 81.32 175.283 81.32C174.713 81.32 174.183 81.445 173.693 81.695C173.213 81.935 172.818 82.305 172.508 82.805C172.208 83.305 172.048 83.915 172.028 84.635H178.418ZM211.771 78.47V79.04H208.771V89H208.096V79.04H205.096V78.47H211.771ZM214.802 82.535C215.002 81.935 215.357 81.48 215.867 81.17C216.377 80.85 217.027 80.69 217.817 80.69V81.395H217.592C216.792 81.395 216.127 81.625 215.597 82.085C215.067 82.535 214.802 83.275 214.802 84.305V89H214.127V80.855H214.802V82.535ZM227.457 84.38C227.457 84.74 227.447 85.01 227.427 85.19H220.392C220.412 85.92 220.572 86.535 220.872 87.035C221.172 87.535 221.567 87.91 222.057 88.16C222.547 88.41 223.082 88.535 223.662 88.535C224.462 88.535 225.132 88.34 225.672 87.95C226.212 87.55 226.552 87.01 226.692 86.33H227.397C227.237 87.16 226.827 87.835 226.167 88.355C225.507 88.865 224.672 89.12 223.662 89.12C222.902 89.12 222.222 88.95 221.622 88.61C221.022 88.27 220.552 87.785 220.212 87.155C219.872 86.515 219.702 85.77 219.702 84.92C219.702 84.07 219.867 83.33 220.197 82.7C220.537 82.07 221.007 81.59 221.607 81.26C222.207 80.92 222.892 80.75 223.662 80.75C224.442 80.75 225.117 80.92 225.687 81.26C226.267 81.59 226.707 82.035 227.007 82.595C227.307 83.145 227.457 83.74 227.457 84.38ZM226.782 84.635C226.812 83.915 226.682 83.305 226.392 82.805C226.112 82.305 225.727 81.935 225.237 81.695C224.747 81.445 224.217 81.32 223.647 81.32C223.077 81.32 222.547 81.445 222.057 81.695C221.577 81.935 221.182 82.305 220.872 82.805C220.572 83.305 220.412 83.915 220.392 84.635H226.782ZM237.582 84.38C237.582 84.74 237.572 85.01 237.552 85.19H230.517C230.537 85.92 230.697 86.535 230.997 87.035C231.297 87.535 231.692 87.91 232.182 88.16C232.672 88.41 233.207 88.535 233.787 88.535C234.587 88.535 235.257 88.34 235.797 87.95C236.337 87.55 236.677 87.01 236.817 86.33H237.522C237.362 87.16 236.952 87.835 236.292 88.355C235.632 88.865 234.797 89.12 233.787 89.12C233.027 89.12 232.347 88.95 231.747 88.61C231.147 88.27 230.677 87.785 230.337 87.155C229.997 86.515 229.827 85.77 229.827 84.92C229.827 84.07 229.992 83.33 230.322 82.7C230.662 82.07 231.132 81.59 231.732 81.26C232.332 80.92 233.017 80.75 233.787 80.75C234.567 80.75 235.242 80.92 235.812 81.26C236.392 81.59 236.832 82.035 237.132 82.595C237.432 83.145 237.582 83.74 237.582 84.38ZM236.907 84.635C236.937 83.915 236.807 83.305 236.517 82.805C236.237 82.305 235.852 81.935 235.362 81.695C234.872 81.445 234.342 81.32 233.772 81.32C233.202 81.32 232.672 81.445 232.182 81.695C231.702 81.935 231.307 82.305 230.997 82.805C230.697 83.305 230.537 83.915 230.517 84.635H236.907ZM248.94 89.12C248.18 89.12 247.495 88.95 246.885 88.61C246.275 88.27 245.795 87.785 245.445 87.155C245.105 86.515 244.935 85.77 244.935 84.92C244.935 84.08 245.11 83.345 245.46 82.715C245.81 82.075 246.29 81.59 246.9 81.26C247.52 80.92 248.21 80.75 248.97 80.75C249.73 80.75 250.415 80.92 251.025 81.26C251.635 81.59 252.11 82.07 252.45 82.7C252.8 83.33 252.975 84.07 252.975 84.92C252.975 85.77 252.8 86.515 252.45 87.155C252.1 87.785 251.615 88.27 250.995 88.61C250.385 88.95 249.7 89.12 248.94 89.12ZM248.94 88.52C249.53 88.52 250.08 88.39 250.59 88.13C251.11 87.86 251.525 87.455 251.835 86.915C252.145 86.375 252.3 85.71 252.3 84.92C252.3 84.14 252.145 83.48 251.835 82.94C251.525 82.4 251.115 82 250.605 81.74C250.095 81.47 249.545 81.335 248.955 81.335C248.365 81.335 247.815 81.47 247.305 81.74C246.805 82 246.4 82.4 246.09 82.94C245.78 83.48 245.625 84.14 245.625 84.92C245.625 85.71 245.775 86.375 246.075 86.915C246.385 87.455 246.79 87.86 247.29 88.13C247.8 88.39 248.35 88.52 248.94 88.52ZM258.878 81.455H256.763V89H256.088V81.455H254.858V80.855H256.088V80.285C256.088 79.435 256.303 78.805 256.733 78.395C257.163 77.975 257.868 77.765 258.848 77.765V78.365C258.068 78.365 257.523 78.515 257.213 78.815C256.913 79.115 256.763 79.605 256.763 80.285V80.855H258.878V81.455ZM267.015 77.9V89H266.34V77.9H267.015ZM270.585 79.04C270.425 79.04 270.29 78.99 270.18 78.89C270.07 78.78 270.015 78.635 270.015 78.455C270.015 78.285 270.07 78.145 270.18 78.035C270.29 77.925 270.425 77.87 270.585 77.87C270.745 77.87 270.88 77.925 270.99 78.035C271.1 78.145 271.155 78.285 271.155 78.455C271.155 78.635 271.1 78.78 270.99 78.89C270.88 78.99 270.745 79.04 270.585 79.04ZM270.915 80.855V89H270.24V80.855H270.915ZM277.244 81.455H275.129V89H274.454V81.455H273.224V80.855H274.454V80.285C274.454 79.435 274.669 78.805 275.099 78.395C275.529 77.975 276.234 77.765 277.214 77.765V78.365C276.434 78.365 275.889 78.515 275.579 78.815C275.279 79.115 275.129 79.605 275.129 80.285V80.855H277.244V81.455ZM287.058 84.38C287.058 84.74 287.048 85.01 287.028 85.19H279.993C280.013 85.92 280.173 86.535 280.473 87.035C280.773 87.535 281.168 87.91 281.658 88.16C282.148 88.41 282.683 88.535 283.263 88.535C284.063 88.535 284.733 88.34 285.273 87.95C285.813 87.55 286.153 87.01 286.293 86.33H286.998C286.838 87.16 286.428 87.835 285.768 88.355C285.108 88.865 284.273 89.12 283.263 89.12C282.503 89.12 281.823 88.95 281.223 88.61C280.623 88.27 280.153 87.785 279.813 87.155C279.473 86.515 279.303 85.77 279.303 84.92C279.303 84.07 279.468 83.33 279.798 82.7C280.138 82.07 280.608 81.59 281.208 81.26C281.808 80.92 282.493 80.75 283.263 80.75C284.043 80.75 284.718 80.92 285.288 81.26C285.868 81.59 286.308 82.035 286.608 82.595C286.908 83.145 287.058 83.74 287.058 84.38ZM286.383 84.635C286.413 83.915 286.283 83.305 285.993 82.805C285.713 82.305 285.328 81.935 284.838 81.695C284.348 81.445 283.818 81.32 283.248 81.32C282.678 81.32 282.148 81.445 281.658 81.695C281.178 81.935 280.783 82.305 280.473 82.805C280.173 83.305 280.013 83.915 279.993 84.635H286.383Z" fill="#828282"/>
<path d="M192.645 90.395H191.97V77.24H192.645V90.395Z" fill="#AFAFAF"/>
<line x1="13.6896" y1="48.4801" x2="28.4801" y2="56.3104" stroke="black" stroke-width="2.5" stroke-linecap="round"/>
<line x1="12.6896" y1="67.4801" x2="27.4801" y2="75.3104" stroke="black" stroke-width="2.5" stroke-linecap="round"/>
<line x1="15.7112" y1="26.5564" x2="30.5564" y2="35.2888" stroke="black" stroke-width="2.5" stroke-linecap="round"/>
<line x1="40.5501" y1="63.7096" x2="30.7096" y2="69.4499" stroke="black" stroke-width="2.5" stroke-linecap="round"/>
<circle cx="7.5" cy="45.5" r="7.5" fill="#1D814F"/>
<circle cx="48" cy="59" r="9" fill="#1D814F"/>
<line x1="29.5" y1="12.5" x2="29.5" y2="94.5" stroke="black" stroke-width="5" stroke-linecap="round"/>
<line x1="41.5501" y1="20.7096" x2="31.7096" y2="26.4499" stroke="black" stroke-width="2.5" stroke-linecap="round"/>
<circle cx="29.5" cy="7.5" r="7.5" fill="#1D814F"/>
<line x1="40.5501" y1="40.7096" x2="30.7096" y2="46.4499" stroke="black" stroke-width="2.5" stroke-linecap="round"/>
<circle cx="16" cy="27" r="6" fill="#1D814F"/>
<circle cx="44" cy="19" r="6" fill="#1D814F"/>
<circle cx="44.5" cy="38.5" r="7.5" fill="#1D814F"/>
<circle cx="10" cy="66" r="7" fill="#1D814F"/>
</svg>
