<svg width="206" height="65" viewBox="0 0 206 65" fill="none" xmlns="http://www.w3.org/2000/svg">
<path d="M59.652 27.004C61.068 27.268 62.268 27.988 63.252 29.164C64.236 30.34 64.728 31.708 64.728 33.268C64.728 34.54 64.404 35.692 63.756 36.724C63.132 37.732 62.208 38.536 60.984 39.136C59.76 39.712 58.296 40 56.592 40H47.88V14.836H56.34C58.884 14.836 60.816 15.424 62.136 16.6C63.48 17.776 64.152 19.3 64.152 21.172C64.152 22.732 63.732 24.004 62.892 24.988C62.052 25.948 60.972 26.62 59.652 27.004ZM50.4 25.96H56.268C57.972 25.96 59.28 25.564 60.192 24.772C61.128 23.956 61.596 22.84 61.596 21.424C61.596 20.032 61.128 18.94 60.192 18.148C59.28 17.356 57.936 16.96 56.16 16.96H50.4V25.96ZM56.412 37.876C58.236 37.876 59.652 37.444 60.66 36.58C61.692 35.716 62.208 34.528 62.208 33.016C62.208 31.504 61.668 30.304 60.588 29.416C59.532 28.504 58.104 28.048 56.304 28.048H50.4V37.876H56.412ZM71.8805 23.836C72.4325 22.612 73.2725 21.664 74.4005 20.992C75.5525 20.32 76.9565 19.984 78.6125 19.984V22.612H77.9285C76.1045 22.612 74.6405 23.104 73.5365 24.088C72.4325 25.072 71.8805 26.716 71.8805 29.02V40H69.3605V20.344H71.8805V23.836ZM81.2514 30.136C81.2514 28.12 81.6474 26.356 82.4394 24.844C83.2554 23.308 84.3714 22.132 85.7874 21.316C87.2274 20.476 88.8474 20.056 90.6474 20.056C92.5194 20.056 94.1274 20.488 95.4714 21.352C96.8394 22.216 97.8234 23.32 98.4234 24.664V20.344H100.943V40H98.4234V35.644C97.7994 36.988 96.8034 38.104 95.4354 38.992C94.0914 39.856 92.4834 40.288 90.6114 40.288C88.8354 40.288 87.2274 39.868 85.7874 39.028C84.3714 38.188 83.2554 37 82.4394 35.464C81.6474 33.928 81.2514 32.152 81.2514 30.136ZM98.4234 30.172C98.4234 28.588 98.0994 27.196 97.4514 25.996C96.8034 24.796 95.9154 23.872 94.7874 23.224C93.6834 22.576 92.4594 22.252 91.1154 22.252C89.7234 22.252 88.4754 22.564 87.3714 23.188C86.2674 23.812 85.3914 24.724 84.7434 25.924C84.1194 27.1 83.8074 28.504 83.8074 30.136C83.8074 31.744 84.1194 33.16 84.7434 34.384C85.3914 35.584 86.2674 36.508 87.3714 37.156C88.4754 37.78 89.7234 38.092 91.1154 38.092C92.4594 38.092 93.6834 37.768 94.7874 37.12C95.9154 36.472 96.8034 35.548 97.4514 34.348C98.0994 33.148 98.4234 31.756 98.4234 30.172ZM113.464 40.288C111.208 40.288 109.36 39.772 107.92 38.74C106.504 37.684 105.712 36.256 105.544 34.456H108.136C108.256 35.56 108.772 36.46 109.684 37.156C110.62 37.828 111.868 38.164 113.428 38.164C114.796 38.164 115.864 37.84 116.632 37.192C117.424 36.544 117.82 35.74 117.82 34.78C117.82 34.108 117.604 33.556 117.172 33.124C116.74 32.692 116.188 32.356 115.516 32.116C114.868 31.852 113.98 31.576 112.852 31.288C111.388 30.904 110.2 30.52 109.288 30.136C108.376 29.752 107.596 29.188 106.948 28.444C106.324 27.676 106.012 26.656 106.012 25.384C106.012 24.424 106.3 23.536 106.876 22.72C107.452 21.904 108.268 21.256 109.324 20.776C110.38 20.296 111.58 20.056 112.924 20.056C115.036 20.056 116.74 20.596 118.036 21.676C119.332 22.732 120.028 24.196 120.124 26.068H117.604C117.532 24.916 117.076 23.992 116.236 23.296C115.42 22.576 114.292 22.216 112.852 22.216C111.58 22.216 110.548 22.516 109.756 23.116C108.964 23.716 108.568 24.46 108.568 25.348C108.568 26.116 108.796 26.752 109.252 27.256C109.732 27.736 110.32 28.12 111.016 28.408C111.712 28.672 112.648 28.972 113.824 29.308C115.24 29.692 116.368 30.064 117.208 30.424C118.048 30.784 118.768 31.312 119.368 32.008C119.968 32.704 120.28 33.628 120.304 34.78C120.304 35.836 120.016 36.784 119.44 37.624C118.864 38.44 118.06 39.088 117.028 39.568C115.996 40.048 114.808 40.288 113.464 40.288ZM131.816 40.288C129.56 40.288 127.712 39.772 126.272 38.74C124.856 37.684 124.064 36.256 123.896 34.456H126.488C126.608 35.56 127.124 36.46 128.036 37.156C128.972 37.828 130.22 38.164 131.78 38.164C133.148 38.164 134.216 37.84 134.984 37.192C135.776 36.544 136.172 35.74 136.172 34.78C136.172 34.108 135.956 33.556 135.524 33.124C135.092 32.692 134.54 32.356 133.868 32.116C133.22 31.852 132.332 31.576 131.204 31.288C129.74 30.904 128.552 30.52 127.64 30.136C126.728 29.752 125.948 29.188 125.3 28.444C124.676 27.676 124.364 26.656 124.364 25.384C124.364 24.424 124.652 23.536 125.228 22.72C125.804 21.904 126.62 21.256 127.676 20.776C128.732 20.296 129.932 20.056 131.276 20.056C133.388 20.056 135.092 20.596 136.388 21.676C137.684 22.732 138.38 24.196 138.476 26.068H135.956C135.884 24.916 135.428 23.992 134.588 23.296C133.772 22.576 132.644 22.216 131.204 22.216C129.932 22.216 128.9 22.516 128.108 23.116C127.316 23.716 126.92 24.46 126.92 25.348C126.92 26.116 127.148 26.752 127.604 27.256C128.084 27.736 128.672 28.12 129.368 28.408C130.064 28.672 131 28.972 132.176 29.308C133.592 29.692 134.72 30.064 135.56 30.424C136.4 30.784 137.12 31.312 137.72 32.008C138.32 32.704 138.632 33.628 138.656 34.78C138.656 35.836 138.368 36.784 137.792 37.624C137.216 38.44 136.412 39.088 135.38 39.568C134.348 40.048 133.16 40.288 131.816 40.288ZM144.66 16.636C144.156 16.636 143.724 16.456 143.364 16.096C143.004 15.736 142.824 15.292 142.824 14.764C142.824 14.236 143.004 13.804 143.364 13.468C143.724 13.108 144.156 12.928 144.66 12.928C145.164 12.928 145.596 13.108 145.956 13.468C146.316 13.804 146.496 14.236 146.496 14.764C146.496 15.292 146.316 15.736 145.956 16.096C145.596 16.456 145.164 16.636 144.66 16.636ZM145.92 20.344V40H143.4V20.344H145.92ZM166.35 14.836V16.924H159.366V40H156.846V16.924H149.826V14.836H166.35ZM178.933 40.288C177.085 40.288 175.417 39.88 173.929 39.064C172.465 38.224 171.301 37.048 170.437 35.536C169.597 34 169.177 32.212 169.177 30.172C169.177 28.132 169.609 26.356 170.473 24.844C171.337 23.308 172.513 22.132 174.001 21.316C175.489 20.476 177.157 20.056 179.005 20.056C180.853 20.056 182.521 20.476 184.009 21.316C185.521 22.132 186.697 23.308 187.537 24.844C188.401 26.356 188.833 28.132 188.833 30.172C188.833 32.188 188.401 33.964 187.537 35.5C186.673 37.036 185.485 38.224 183.973 39.064C182.461 39.88 180.781 40.288 178.933 40.288ZM178.933 38.092C180.229 38.092 181.429 37.804 182.533 37.228C183.637 36.628 184.525 35.74 185.197 34.564C185.893 33.364 186.241 31.9 186.241 30.172C186.241 28.444 185.905 26.992 185.233 25.816C184.561 24.616 183.673 23.728 182.569 23.152C181.465 22.552 180.265 22.252 178.969 22.252C177.673 22.252 176.473 22.552 175.369 23.152C174.265 23.728 173.377 24.616 172.705 25.816C172.057 26.992 171.733 28.444 171.733 30.172C171.733 31.9 172.057 33.364 172.705 34.564C173.377 35.74 174.253 36.628 175.333 37.228C176.437 37.804 177.637 38.092 178.933 38.092ZM195.947 37.948H204.983V40H193.427V14.836H195.947V37.948Z" fill="#AABA9E"/>
<line x1="9.11226" y1="34.7887" x2="17.4183" y2="39.186" stroke="white" stroke-width="2.5" stroke-linecap="round"/>
<line x1="8.4937" y1="46.5426" x2="16.7997" y2="50.9399" stroke="white" stroke-width="2.5" stroke-linecap="round"/>
<line x1="10.371" y1="21.2575" x2="18.7316" y2="26.1755" stroke="white" stroke-width="2.5" stroke-linecap="round"/>
<line x1="24.911" y1="45.0592" x2="19.6477" y2="48.1294" stroke="white" stroke-width="2.5" stroke-linecap="round"/>
<circle cx="4.63918" cy="33.145" r="4.63918" fill="#1D814F"/>
<circle cx="29.6907" cy="41.4947" r="5.56701" fill="#1D814F"/>
<line x1="19.201" y1="13.6855" x2="19.201" y2="62.5" stroke="white" stroke-width="5" stroke-linecap="round"/>
<line x1="25.5295" y1="18.4615" x2="20.2663" y2="21.5317" stroke="white" stroke-width="2.5" stroke-linecap="round"/>
<circle cx="18.2474" cy="9.63918" r="4.63918" fill="#1D814F"/>
<line x1="24.911" y1="30.8326" x2="19.6477" y2="33.9028" stroke="white" stroke-width="2.5" stroke-linecap="round"/>
<ellipse cx="9.89692" cy="21.7016" rx="3.71134" ry="3.71134" fill="#1D814F"/>
<ellipse cx="27.2165" cy="16.7524" rx="3.71134" ry="3.71134" fill="#1D814F"/>
<circle cx="27.5258" cy="28.815" r="4.63918" fill="#1D814F"/>
<circle cx="6.18558" cy="45.824" r="4.3299" fill="#1D814F"/>
<path d="M50.235 53.007C50.6823 53.0877 51.0563 53.3077 51.357 53.667C51.665 54.0263 51.819 54.448 51.819 54.932C51.819 55.328 51.7237 55.6837 51.533 55.999C51.3497 56.307 51.071 56.5527 50.697 56.736C50.3303 56.912 49.883 57 49.355 57H46.902V49.278H49.311C50.081 49.278 50.6603 49.4577 51.049 49.817C51.445 50.169 51.643 50.6273 51.643 51.192C51.643 51.6833 51.511 52.083 51.247 52.391C50.983 52.6917 50.6457 52.897 50.235 53.007ZM47.397 52.787H49.333C49.9123 52.787 50.356 52.6513 50.664 52.38C50.9793 52.1013 51.137 51.72 51.137 51.236C51.137 50.7667 50.983 50.3963 50.675 50.125C50.367 49.8537 49.9013 49.718 49.278 49.718H47.397V52.787ZM49.322 56.571C49.9453 56.571 50.433 56.4243 50.785 56.131C51.1443 55.8303 51.324 55.4197 51.324 54.899C51.324 54.3857 51.1407 53.9787 50.774 53.678C50.4147 53.37 49.9197 53.216 49.289 53.216H47.397V56.571H49.322ZM54.3171 52.259C54.4638 51.819 54.7241 51.4853 55.0981 51.258C55.4721 51.0233 55.9488 50.906 56.5281 50.906V51.423H56.3631C55.7765 51.423 55.2888 51.5917 54.9001 51.929C54.5115 52.259 54.3171 52.8017 54.3171 53.557V57H53.8221V51.027H54.3171V52.259ZM57.9098 54.008C57.9098 53.392 58.0308 52.853 58.2728 52.391C58.5222 51.929 58.8632 51.5733 59.2958 51.324C59.7358 51.0747 60.2345 50.95 60.7918 50.95C61.4225 50.95 61.9578 51.104 62.3978 51.412C62.8378 51.72 63.1458 52.1123 63.3218 52.589V51.027H63.8168V57H63.3218V55.427C63.1458 55.911 62.8342 56.3107 62.3868 56.626C61.9468 56.934 61.4152 57.088 60.7918 57.088C60.2345 57.088 59.7358 56.9633 59.2958 56.714C58.8632 56.4573 58.5222 56.098 58.2728 55.636C58.0308 55.1667 57.9098 54.624 57.9098 54.008ZM63.3218 54.008C63.3218 53.4873 63.2118 53.029 62.9918 52.633C62.7792 52.2297 62.4858 51.9217 62.1118 51.709C61.7378 51.489 61.3198 51.379 60.8578 51.379C60.3738 51.379 59.9485 51.4853 59.5818 51.698C59.2152 51.9033 58.9292 52.204 58.7238 52.6C58.5185 52.996 58.4158 53.4653 58.4158 54.008C58.4158 54.5507 58.5185 55.02 58.7238 55.416C58.9292 55.812 59.2152 56.1163 59.5818 56.329C59.9558 56.5417 60.3812 56.648 60.8578 56.648C61.3198 56.648 61.7378 56.5417 62.1118 56.329C62.4932 56.109 62.7902 55.801 63.0028 55.405C63.2155 55.0017 63.3218 54.536 63.3218 54.008ZM68.1602 57.088C67.4929 57.088 66.9465 56.9413 66.5212 56.648C66.1032 56.3547 65.8685 55.9367 65.8172 55.394H66.3232C66.3599 55.7827 66.5359 56.0907 66.8512 56.318C67.1739 56.5453 67.6102 56.659 68.1602 56.659C68.6149 56.659 68.9742 56.5453 69.2382 56.318C69.5095 56.0833 69.6452 55.7973 69.6452 55.46C69.6452 55.2253 69.5719 55.0347 69.4252 54.888C69.2859 54.734 69.1099 54.6167 68.8972 54.536C68.6845 54.4553 68.3949 54.3673 68.0282 54.272C67.5882 54.1547 67.2325 54.041 66.9612 53.931C66.6899 53.8137 66.4589 53.6413 66.2682 53.414C66.0775 53.1867 65.9822 52.8823 65.9822 52.501C65.9822 52.2223 66.0665 51.9657 66.2352 51.731C66.4039 51.489 66.6385 51.2983 66.9392 51.159C67.2399 51.0197 67.5809 50.95 67.9622 50.95C68.5855 50.95 69.0879 51.1077 69.4692 51.423C69.8579 51.731 70.0669 52.16 70.0962 52.71H69.6012C69.5792 52.314 69.4252 51.9913 69.1392 51.742C68.8532 51.4927 68.4572 51.368 67.9512 51.368C67.5259 51.368 67.1739 51.478 66.8952 51.698C66.6165 51.918 66.4772 52.1857 66.4772 52.501C66.4772 52.7797 66.5542 53.007 66.7082 53.183C66.8695 53.3517 67.0639 53.4837 67.2912 53.579C67.5259 53.667 67.8339 53.7623 68.2152 53.865C68.6332 53.975 68.9669 54.085 69.2162 54.195C69.4729 54.2977 69.6892 54.4517 69.8652 54.657C70.0412 54.855 70.1292 55.1227 70.1292 55.46C70.1292 55.768 70.0449 56.0467 69.8762 56.296C69.7075 56.5453 69.4729 56.7397 69.1722 56.879C68.8715 57.0183 68.5342 57.088 68.1602 57.088ZM74.178 57.088C73.5106 57.088 72.9643 56.9413 72.539 56.648C72.121 56.3547 71.8863 55.9367 71.835 55.394H72.341C72.3776 55.7827 72.5536 56.0907 72.869 56.318C73.1916 56.5453 73.628 56.659 74.178 56.659C74.6326 56.659 74.992 56.5453 75.256 56.318C75.5273 56.0833 75.663 55.7973 75.663 55.46C75.663 55.2253 75.5896 55.0347 75.443 54.888C75.3036 54.734 75.1276 54.6167 74.915 54.536C74.7023 54.4553 74.4126 54.3673 74.046 54.272C73.606 54.1547 73.2503 54.041 72.979 53.931C72.7076 53.8137 72.4766 53.6413 72.286 53.414C72.0953 53.1867 72 52.8823 72 52.501C72 52.2223 72.0843 51.9657 72.253 51.731C72.4216 51.489 72.6563 51.2983 72.957 51.159C73.2576 51.0197 73.5986 50.95 73.98 50.95C74.6033 50.95 75.1056 51.1077 75.487 51.423C75.8756 51.731 76.0846 52.16 76.114 52.71H75.619C75.597 52.314 75.443 51.9913 75.157 51.742C74.871 51.4927 74.475 51.368 73.969 51.368C73.5436 51.368 73.1916 51.478 72.913 51.698C72.6343 51.918 72.495 52.1857 72.495 52.501C72.495 52.7797 72.572 53.007 72.726 53.183C72.8873 53.3517 73.0816 53.4837 73.309 53.579C73.5436 53.667 73.8516 53.7623 74.233 53.865C74.651 53.975 74.9846 54.085 75.234 54.195C75.4906 54.2977 75.707 54.4517 75.883 54.657C76.059 54.855 76.147 55.1227 76.147 55.46C76.147 55.768 76.0626 56.0467 75.894 56.296C75.7253 56.5453 75.4906 56.7397 75.19 56.879C74.8893 57.0183 74.552 57.088 74.178 57.088ZM78.4577 49.696C78.3404 49.696 78.2414 49.6593 78.1607 49.586C78.0801 49.5053 78.0397 49.399 78.0397 49.267C78.0397 49.1423 78.0801 49.0397 78.1607 48.959C78.2414 48.8783 78.3404 48.838 78.4577 48.838C78.5751 48.838 78.6741 48.8783 78.7547 48.959C78.8354 49.0397 78.8757 49.1423 78.8757 49.267C78.8757 49.399 78.8354 49.5053 78.7547 49.586C78.6741 49.6593 78.5751 49.696 78.4577 49.696ZM78.6997 51.027V57H78.2047V51.027H78.6997ZM80.7563 54.008C80.7563 53.3847 80.8773 52.842 81.1193 52.38C81.3686 51.918 81.7096 51.566 82.1423 51.324C82.5823 51.0747 83.0846 50.95 83.6493 50.95C84.3973 50.95 85.0096 51.137 85.4863 51.511C85.9703 51.885 86.271 52.3873 86.3883 53.018H85.8713C85.776 52.5047 85.5266 52.1013 85.1233 51.808C84.7273 51.5147 84.236 51.368 83.6493 51.368C83.2093 51.368 82.8096 51.467 82.4503 51.665C82.091 51.8557 81.8013 52.1527 81.5813 52.556C81.3686 52.952 81.2623 53.436 81.2623 54.008C81.2623 54.5873 81.3686 55.075 81.5813 55.471C81.8013 55.867 82.091 56.164 82.4503 56.362C82.8096 56.56 83.2093 56.659 83.6493 56.659C84.236 56.659 84.7273 56.5123 85.1233 56.219C85.5266 55.9257 85.776 55.5223 85.8713 55.009H86.3883C86.271 55.6323 85.9703 56.1347 85.4863 56.516C85.0023 56.8973 84.39 57.088 83.6493 57.088C83.0846 57.088 82.5823 56.9633 82.1423 56.714C81.7096 56.4647 81.3686 56.109 81.1193 55.647C80.8773 55.1777 80.7563 54.6313 80.7563 54.008ZM88.1383 54.008C88.1383 53.392 88.2593 52.853 88.5013 52.391C88.7507 51.929 89.0917 51.5733 89.5243 51.324C89.9643 51.0747 90.463 50.95 91.0203 50.95C91.651 50.95 92.1863 51.104 92.6263 51.412C93.0663 51.72 93.3743 52.1123 93.5503 52.589V51.027H94.0453V57H93.5503V55.427C93.3743 55.911 93.0627 56.3107 92.6153 56.626C92.1753 56.934 91.6437 57.088 91.0203 57.088C90.463 57.088 89.9643 56.9633 89.5243 56.714C89.0917 56.4573 88.7507 56.098 88.5013 55.636C88.2593 55.1667 88.1383 54.624 88.1383 54.008ZM93.5503 54.008C93.5503 53.4873 93.4403 53.029 93.2203 52.633C93.0077 52.2297 92.7143 51.9217 92.3403 51.709C91.9663 51.489 91.5483 51.379 91.0863 51.379C90.6023 51.379 90.177 51.4853 89.8103 51.698C89.4437 51.9033 89.1577 52.204 88.9523 52.6C88.747 52.996 88.6443 53.4653 88.6443 54.008C88.6443 54.5507 88.747 55.02 88.9523 55.416C89.1577 55.812 89.4437 56.1163 89.8103 56.329C90.1843 56.5417 90.6097 56.648 91.0863 56.648C91.5483 56.648 91.9663 56.5417 92.3403 56.329C92.7217 56.109 93.0187 55.801 93.2313 55.405C93.444 55.0017 93.5503 54.536 93.5503 54.008ZM96.0897 54.008C96.0897 53.3847 96.2107 52.842 96.4527 52.38C96.702 51.918 97.043 51.566 97.4757 51.324C97.9157 51.0747 98.418 50.95 98.9827 50.95C99.7307 50.95 100.343 51.137 100.82 51.511C101.304 51.885 101.604 52.3873 101.722 53.018H101.205C101.109 52.5047 100.86 52.1013 100.457 51.808C100.061 51.5147 99.5694 51.368 98.9827 51.368C98.5427 51.368 98.143 51.467 97.7837 51.665C97.4244 51.8557 97.1347 52.1527 96.9147 52.556C96.702 52.952 96.5957 53.436 96.5957 54.008C96.5957 54.5873 96.702 55.075 96.9147 55.471C97.1347 55.867 97.4244 56.164 97.7837 56.362C98.143 56.56 98.5427 56.659 98.9827 56.659C99.5694 56.659 100.061 56.5123 100.457 56.219C100.86 55.9257 101.109 55.5223 101.205 55.009H101.722C101.604 55.6323 101.304 56.1347 100.82 56.516C100.336 56.8973 99.7234 57.088 98.9827 57.088C98.418 57.088 97.9157 56.9633 97.4757 56.714C97.043 56.4647 96.702 56.109 96.4527 55.647C96.2107 55.1777 96.0897 54.6313 96.0897 54.008ZM109.159 53.612C109.159 53.876 109.151 54.074 109.137 54.206H103.978C103.992 54.7413 104.11 55.1923 104.33 55.559C104.55 55.9257 104.839 56.2007 105.199 56.384C105.558 56.5673 105.95 56.659 106.376 56.659C106.962 56.659 107.454 56.516 107.85 56.23C108.246 55.9367 108.495 55.5407 108.598 55.042H109.115C108.997 55.6507 108.697 56.1457 108.213 56.527C107.729 56.901 107.116 57.088 106.376 57.088C105.818 57.088 105.32 56.9633 104.88 56.714C104.44 56.4647 104.095 56.109 103.846 55.647C103.596 55.1777 103.472 54.6313 103.472 54.008C103.472 53.3847 103.593 52.842 103.835 52.38C104.084 51.918 104.429 51.566 104.869 51.324C105.309 51.0747 105.811 50.95 106.376 50.95C106.948 50.95 107.443 51.0747 107.861 51.324C108.286 51.566 108.609 51.8923 108.829 52.303C109.049 52.7063 109.159 53.1427 109.159 53.612ZM108.664 53.799C108.686 53.271 108.59 52.8237 108.378 52.457C108.172 52.0903 107.89 51.819 107.531 51.643C107.171 51.4597 106.783 51.368 106.365 51.368C105.947 51.368 105.558 51.4597 105.199 51.643C104.847 51.819 104.557 52.0903 104.33 52.457C104.11 52.8237 103.992 53.271 103.978 53.799H108.664ZM110.897 54.008C110.897 53.392 111.018 52.853 111.26 52.391C111.509 51.929 111.85 51.5733 112.283 51.324C112.723 51.0747 113.221 50.95 113.779 50.95C114.409 50.95 114.945 51.104 115.385 51.412C115.825 51.72 116.133 52.1123 116.309 52.589V51.027H116.804V57H116.309V55.427C116.133 55.911 115.821 56.3107 115.374 56.626C114.934 56.934 114.402 57.088 113.779 57.088C113.221 57.088 112.723 56.9633 112.283 56.714C111.85 56.4573 111.509 56.098 111.26 55.636C111.018 55.1667 110.897 54.624 110.897 54.008ZM116.309 54.008C116.309 53.4873 116.199 53.029 115.979 52.633C115.766 52.2297 115.473 51.9217 115.099 51.709C114.725 51.489 114.307 51.379 113.845 51.379C113.361 51.379 112.935 51.4853 112.569 51.698C112.202 51.9033 111.916 52.204 111.711 52.6C111.505 52.996 111.403 53.4653 111.403 54.008C111.403 54.5507 111.505 55.02 111.711 55.416C111.916 55.812 112.202 56.1163 112.569 56.329C112.943 56.5417 113.368 56.648 113.845 56.648C114.307 56.648 114.725 56.5417 115.099 56.329C115.48 56.109 115.777 55.801 115.99 55.405C116.202 55.0017 116.309 54.536 116.309 54.008ZM124.535 53.612C124.535 53.876 124.528 54.074 124.513 54.206H119.354C119.369 54.7413 119.486 55.1923 119.706 55.559C119.926 55.9257 120.216 56.2007 120.575 56.384C120.934 56.5673 121.327 56.659 121.752 56.659C122.339 56.659 122.83 56.516 123.226 56.23C123.622 55.9367 123.871 55.5407 123.974 55.042H124.491C124.374 55.6507 124.073 56.1457 123.589 56.527C123.105 56.901 122.493 57.088 121.752 57.088C121.195 57.088 120.696 56.9633 120.256 56.714C119.816 56.4647 119.471 56.109 119.222 55.647C118.973 55.1777 118.848 54.6313 118.848 54.008C118.848 53.3847 118.969 52.842 119.211 52.38C119.46 51.918 119.805 51.566 120.245 51.324C120.685 51.0747 121.187 50.95 121.752 50.95C122.324 50.95 122.819 51.0747 123.237 51.324C123.662 51.566 123.985 51.8923 124.205 52.303C124.425 52.7063 124.535 53.1427 124.535 53.612ZM124.04 53.799C124.062 53.271 123.967 52.8237 123.754 52.457C123.549 52.0903 123.266 51.819 122.907 51.643C122.548 51.4597 122.159 51.368 121.741 51.368C121.323 51.368 120.934 51.4597 120.575 51.643C120.223 51.819 119.933 52.0903 119.706 52.457C119.486 52.8237 119.369 53.271 119.354 53.799H124.04ZM134.473 58.023H133.978V48.376H134.473V58.023ZM148.499 49.278V49.696H146.299V57H145.804V49.696H143.604V49.278H148.499ZM150.722 52.259C150.868 51.819 151.129 51.4853 151.503 51.258C151.877 51.0233 152.353 50.906 152.933 50.906V51.423H152.768C152.181 51.423 151.693 51.5917 151.305 51.929C150.916 52.259 150.722 52.8017 150.722 53.557V57H150.227V51.027H150.722V52.259ZM160.002 53.612C160.002 53.876 159.994 54.074 159.98 54.206H154.821C154.835 54.7413 154.953 55.1923 155.173 55.559C155.393 55.9257 155.682 56.2007 156.042 56.384C156.401 56.5673 156.793 56.659 157.219 56.659C157.805 56.659 158.297 56.516 158.693 56.23C159.089 55.9367 159.338 55.5407 159.441 55.042H159.958C159.84 55.6507 159.54 56.1457 159.056 56.527C158.572 56.901 157.959 57.088 157.219 57.088C156.661 57.088 156.163 56.9633 155.723 56.714C155.283 56.4647 154.938 56.109 154.689 55.647C154.439 55.1777 154.315 54.6313 154.315 54.008C154.315 53.3847 154.436 52.842 154.678 52.38C154.927 51.918 155.272 51.566 155.712 51.324C156.152 51.0747 156.654 50.95 157.219 50.95C157.791 50.95 158.286 51.0747 158.704 51.324C159.129 51.566 159.452 51.8923 159.672 52.303C159.892 52.7063 160.002 53.1427 160.002 53.612ZM159.507 53.799C159.529 53.271 159.433 52.8237 159.221 52.457C159.015 52.0903 158.733 51.819 158.374 51.643C158.014 51.4597 157.626 51.368 157.208 51.368C156.79 51.368 156.401 51.4597 156.042 51.643C155.69 51.819 155.4 52.0903 155.173 52.457C154.953 52.8237 154.835 53.271 154.821 53.799H159.507ZM167.427 53.612C167.427 53.876 167.419 54.074 167.405 54.206H162.246C162.26 54.7413 162.378 55.1923 162.598 55.559C162.818 55.9257 163.107 56.2007 163.467 56.384C163.826 56.5673 164.218 56.659 164.644 56.659C165.23 56.659 165.722 56.516 166.118 56.23C166.514 55.9367 166.763 55.5407 166.866 55.042H167.383C167.265 55.6507 166.965 56.1457 166.481 56.527C165.997 56.901 165.384 57.088 164.644 57.088C164.086 57.088 163.588 56.9633 163.148 56.714C162.708 56.4647 162.363 56.109 162.114 55.647C161.864 55.1777 161.74 54.6313 161.74 54.008C161.74 53.3847 161.861 52.842 162.103 52.38C162.352 51.918 162.697 51.566 163.137 51.324C163.577 51.0747 164.079 50.95 164.644 50.95C165.216 50.95 165.711 51.0747 166.129 51.324C166.554 51.566 166.877 51.8923 167.097 52.303C167.317 52.7063 167.427 53.1427 167.427 53.612ZM166.932 53.799C166.954 53.271 166.858 52.8237 166.646 52.457C166.44 52.0903 166.158 51.819 165.799 51.643C165.439 51.4597 165.051 51.368 164.633 51.368C164.215 51.368 163.826 51.4597 163.467 51.643C163.115 51.819 162.825 52.0903 162.598 52.457C162.378 52.8237 162.26 53.271 162.246 53.799H166.932ZM175.756 57.088C175.199 57.088 174.696 56.9633 174.249 56.714C173.802 56.4647 173.45 56.109 173.193 55.647C172.944 55.1777 172.819 54.6313 172.819 54.008C172.819 53.392 172.947 52.853 173.204 52.391C173.461 51.9217 173.813 51.566 174.26 51.324C174.715 51.0747 175.221 50.95 175.778 50.95C176.335 50.95 176.838 51.0747 177.285 51.324C177.732 51.566 178.081 51.918 178.33 52.38C178.587 52.842 178.715 53.3847 178.715 54.008C178.715 54.6313 178.587 55.1777 178.33 55.647C178.073 56.109 177.718 56.4647 177.263 56.714C176.816 56.9633 176.313 57.088 175.756 57.088ZM175.756 56.648C176.189 56.648 176.592 56.5527 176.966 56.362C177.347 56.164 177.652 55.867 177.879 55.471C178.106 55.075 178.22 54.5873 178.22 54.008C178.22 53.436 178.106 52.952 177.879 52.556C177.652 52.16 177.351 51.8667 176.977 51.676C176.603 51.478 176.2 51.379 175.767 51.379C175.334 51.379 174.931 51.478 174.557 51.676C174.19 51.8667 173.893 52.16 173.666 52.556C173.439 52.952 173.325 53.436 173.325 54.008C173.325 54.5873 173.435 55.075 173.655 55.471C173.882 55.867 174.179 56.164 174.546 56.362C174.92 56.5527 175.323 56.648 175.756 56.648ZM183.044 51.467H181.493V57H180.998V51.467H180.096V51.027H180.998V50.609C180.998 49.9857 181.156 49.5237 181.471 49.223C181.786 48.915 182.303 48.761 183.022 48.761V49.201C182.45 49.201 182.05 49.311 181.823 49.531C181.603 49.751 181.493 50.1103 181.493 50.609V51.027H183.044V51.467ZM189.011 48.86V57H188.516V48.86H189.011ZM191.629 49.696C191.511 49.696 191.412 49.6593 191.332 49.586C191.251 49.5053 191.211 49.399 191.211 49.267C191.211 49.1423 191.251 49.0397 191.332 48.959C191.412 48.8783 191.511 48.838 191.629 48.838C191.746 48.838 191.845 48.8783 191.926 48.959C192.006 49.0397 192.047 49.1423 192.047 49.267C192.047 49.399 192.006 49.5053 191.926 49.586C191.845 49.6593 191.746 49.696 191.629 49.696ZM191.871 51.027V57H191.376V51.027H191.871ZM196.512 51.467H194.961V57H194.466V51.467H193.564V51.027H194.466V50.609C194.466 49.9857 194.624 49.5237 194.939 49.223C195.255 48.915 195.772 48.761 196.49 48.761V49.201C195.918 49.201 195.519 49.311 195.291 49.531C195.071 49.751 194.961 50.1103 194.961 50.609V51.027H196.512V51.467ZM203.709 53.612C203.709 53.876 203.702 54.074 203.687 54.206H198.528C198.543 54.7413 198.66 55.1923 198.88 55.559C199.1 55.9257 199.39 56.2007 199.749 56.384C200.109 56.5673 200.501 56.659 200.926 56.659C201.513 56.659 202.004 56.516 202.4 56.23C202.796 55.9367 203.046 55.5407 203.148 55.042H203.665C203.548 55.6507 203.247 56.1457 202.763 56.527C202.279 56.901 201.667 57.088 200.926 57.088C200.369 57.088 199.87 56.9633 199.43 56.714C198.99 56.4647 198.646 56.109 198.396 55.647C198.147 55.1777 198.022 54.6313 198.022 54.008C198.022 53.3847 198.143 52.842 198.385 52.38C198.635 51.918 198.979 51.566 199.419 51.324C199.859 51.0747 200.362 50.95 200.926 50.95C201.498 50.95 201.993 51.0747 202.411 51.324C202.837 51.566 203.159 51.8923 203.379 52.303C203.599 52.7063 203.709 53.1427 203.709 53.612ZM203.214 53.799C203.236 53.271 203.141 52.8237 202.928 52.457C202.723 52.0903 202.441 51.819 202.081 51.643C201.722 51.4597 201.333 51.368 200.915 51.368C200.497 51.368 200.109 51.4597 199.749 51.643C199.397 51.819 199.108 52.0903 198.88 52.457C198.66 52.8237 198.543 53.271 198.528 53.799H203.214Z" fill="white"/>
</svg>
